<svg width="228" height="210" viewBox="0 0 228 210" fill="none" xmlns="http://www.w3.org/2000/svg">
<g clip-path="url(#clip0_2_2910)">
<path d="M55.3816 218.337C57.91 218.337 66.571 220.361 70.8665 216.656C73.1854 214.654 74.5055 210.851 75.4135 206.205C76.0351 203.023 76.4682 199.451 76.9012 195.789C76.9571 195.286 78.6823 186.747 79.6671 181.696C80.0513 179.707 80.3237 178.27 80.3307 178.054C80.3796 177.168 80.163 176.233 79.723 175.27C77.3552 170.023 68.6384 164.323 64.4756 165.14C64.4756 165.14 64.4546 165.14 64.4476 165.14C56.8554 166.675 56.0382 182.763 54.2711 187.751C54.1314 188.142 54.0056 188.547 53.8939 188.944C53.8939 188.965 53.8799 188.993 53.8729 189.028C53.7332 189.551 53.5866 190.228 53.4469 191.03C53.4329 191.065 53.4259 191.086 53.4259 191.121C53.2094 192.377 52.9929 193.912 52.8043 195.614C51.8125 204.656 51.589 218.323 55.3816 218.323V218.337Z" fill="#F5A20A"/>
<path d="M55.3818 218.337C57.9102 218.337 66.5711 220.36 70.8667 216.655C73.1856 214.653 74.5056 210.851 75.4136 206.204C76.0353 203.023 76.4683 199.451 76.9014 195.788C76.9572 195.286 78.6824 186.746 79.6673 181.695L79.7232 175.276C76.5032 170.839 69.9726 166.688 64.4757 165.146C64.4757 165.146 64.4548 165.146 64.4478 165.146C56.8555 166.681 56.0383 182.769 54.2712 187.758C54.1315 188.148 54.0058 188.553 53.894 188.951C53.894 188.972 53.8801 188.999 53.8731 189.034C53.8032 189.306 53.6566 190.011 53.447 191.037C53.4331 191.072 53.4261 191.093 53.4261 191.127C53.2095 192.383 52.993 193.918 52.8044 195.62C51.8126 204.662 51.5891 218.33 55.3818 218.33V218.337Z" fill="#D17100"/>
<path d="M67.8277 153.083C55.9818 158.463 51.5047 188.372 52.9435 191.616C67.702 198.042 89.04 192.125 89.4032 190.89C91.2541 181.967 95.6963 158.728 87.3567 153.69C81.7061 150.279 72.696 151.032 67.8277 153.09V153.083Z" fill="#FCEAAC"/>
<path d="M74.9883 192.027C76.476 185.462 80.129 175.757 84.1661 165.494C80.8344 175.632 77.9986 185.211 76.9998 192.718L74.9883 192.027Z" fill="#F3DBB7"/>
<path d="M145.456 222.551C135.496 225.405 124.97 226.932 114.088 226.932C100.238 226.932 86.9671 224.456 74.6952 219.921C74.8977 217.395 75.2819 214.549 75.3377 213.725C75.6241 209.232 75.7708 204.572 76.2108 200.114C77.4261 187.925 79.6892 173.818 84.1803 162.418C85.3537 159.418 86.9112 157.486 87.3513 154.221C88.3082 154.514 88.8739 155.246 89.6353 155.867C100.65 164.944 117.616 161.714 127.89 153.118L130.223 150.286C135.266 149.805 145.142 154.639 143.249 156.718C137.983 182.595 139.938 183.405 140.916 193.821C141.65 194.302 144.052 211.228 144.932 211.228C145.331 214.312 145.345 219.028 145.456 222.551Z" fill="#FCEAAC"/>
<path d="M160.218 217.89C158.478 219.3 150.299 219.963 146.493 216.16C144.439 214.102 143.266 210.195 142.463 205.43C141.911 202.165 141.527 198.495 141.143 194.735C141.094 194.225 139.564 185.449 138.691 180.265C138.349 178.221 138.111 176.742 138.097 176.525C138.048 175.618 138.244 174.656 138.635 173.665C140.737 168.279 148.462 162.425 152.15 163.263C152.15 163.263 152.164 163.263 152.171 163.263C158.904 164.839 159.624 181.353 161.188 186.481C161.314 186.879 161.426 187.297 161.524 187.709C161.524 187.73 161.538 187.765 161.538 187.793C161.663 188.33 161.796 189.028 161.915 189.851C161.929 189.886 161.929 189.907 161.929 189.942C162.124 191.232 162.313 192.802 162.481 194.56C163.361 203.846 163.179 215.463 160.197 217.877L160.218 217.89Z" fill="#F5A20A"/>
<path d="M160.216 217.89C158.456 219.278 150.298 219.962 146.491 216.16C144.438 214.102 143.264 210.195 142.461 205.43C141.909 202.164 141.525 198.495 141.141 194.734C141.092 194.225 139.563 185.448 138.69 180.264L138.641 173.671C141.497 169.116 147.288 164.853 152.156 163.269C152.156 163.269 152.17 163.269 152.177 163.269C158.91 164.846 159.629 181.36 161.194 186.488C161.32 186.885 161.431 187.304 161.529 187.716C161.529 187.736 161.543 187.771 161.543 187.799C161.606 188.078 161.739 188.804 161.92 189.857C161.934 189.892 161.934 189.913 161.934 189.948C162.13 191.239 162.318 192.809 162.486 194.567C163.366 203.853 163.157 215.56 160.202 217.883L160.216 217.89Z" fill="#D17100"/>
<path d="M133.375 150.865C157.437 145.137 161.928 176.148 163.304 187.855C145.85 187.172 146.89 194.141 139.955 194.19C139.368 193.82 137.803 188.427 137.503 187.416C134.981 178.862 131.741 170.26 132.244 168.272C134.395 159.662 132.292 151.123 133.382 150.865H133.375Z" fill="#FCEAAC"/>
<path d="M157.512 195.189L141.566 197.282C141.566 197.282 145.282 195.279 149.263 194.965C153.496 194.638 157.519 195.182 157.519 195.182L157.512 195.189Z" fill="#D17100"/>
<path d="M142.033 159.397C152.293 175.945 155.877 190.129 158.999 199.213C161.136 205.429 161.29 218.692 158.105 219.041C155.213 219.355 149.611 223.541 140.203 212.155C136.788 208.024 132.192 196.869 130.543 186.711C129.901 180.285 128.371 172.345 127.519 167.092C127.302 165.759 127.589 164.378 128.392 163.297C131.458 159.152 136.222 158.259 142.04 159.404L142.033 159.397Z" fill="#F5A20A"/>
<path d="M128.387 162.062C135.581 166.716 148.942 159.258 155.068 156.725C155.277 156.551 155.48 156.362 155.683 156.174C156.849 155.058 158.826 153.111 158.665 150.642C158.637 150.251 158.511 148.395 157.017 147.369C156.151 146.783 155.759 146.581 155.305 146.595C155.096 146.239 154.432 145.221 153.357 145.081C152.519 144.976 151.073 145.409 150.486 146.281C149.557 147.662 148.167 149.295 146.128 150.6C144.849 151.409 143.83 152.03 141.294 152.769C138.221 153.662 137.292 153.628 135.336 154.479C133.171 155.414 130.091 159.474 128.387 162.069V162.062Z" fill="#D17100"/>
<path d="M127.31 164.901C127.499 159.905 133.401 153.864 138.702 153.731C151.051 153.431 150.415 144.682 154.11 145.75C154.599 146.015 155.269 147.124 155.423 147.933C155.87 145.938 159.928 148.38 158.671 152.217C158.943 151.868 158.873 150.564 159.139 150.515C159.425 150.347 160.543 151.338 161.032 152.259C162.966 155.873 157.421 162.48 156.869 163.122C152.175 168.612 145.742 170.545 141.873 171.292C135.852 171.473 126.779 173.831 127.303 164.908L127.31 164.901Z" fill="#F5A20A"/>
<path d="M155.137 147.125C155.688 149.93 150.478 157.681 145.232 159.942C145.086 160.004 144.688 161.309 145.211 161.197C150.618 158.79 156.617 151.583 156.212 148.262C156.163 147.879 155.744 147.607 156.066 147.258C155.982 147.258 155.241 147.23 155.137 147.125Z" fill="#DC8D32"/>
<path d="M158.719 150.307C159.27 153.112 154.06 160.863 148.814 163.123C148.668 163.186 148.27 164.491 148.794 164.379C154.2 161.972 160.199 154.765 159.794 151.444C159.745 151.061 159.703 150.733 159.703 150.733C159.703 150.733 159.033 150.279 158.719 150.307Z" fill="#DC8D32"/>
<path d="M68.7468 158.498C58.654 175.151 55.2176 189.37 52.1863 198.481C50.1118 204.718 50.0909 217.981 53.2759 218.295C56.1675 218.581 61.8181 222.704 71.1076 211.228C74.4812 207.063 78.9653 195.865 80.5089 185.686C81.0886 179.253 82.5344 171.3 83.3377 166.039C83.5402 164.707 83.2399 163.325 82.4227 162.251C79.3145 158.142 74.544 157.298 68.7398 158.498H68.7468Z" fill="#F5A20A"/>
<path d="M81.4286 161.532C74.2834 166.255 61.8298 158.427 55.6833 155.957C55.4738 155.783 55.2643 155.602 55.0687 155.413C53.8883 154.304 51.8907 152.385 52.0304 149.916C52.0513 149.525 52.1561 147.669 53.6438 146.629C54.5029 146.036 54.8941 145.827 55.3481 145.834C55.5506 145.478 56.2072 144.453 57.2828 144.299C58.121 144.188 59.5738 144.606 60.1675 145.464C61.1104 146.839 62.5213 148.457 64.5678 149.741C65.8529 150.536 67.0403 151.018 69.5827 151.736C72.6629 152.595 72.9284 152.274 75.4009 153.285C81.0794 155.609 79.7104 158.964 81.4356 161.539L81.4286 161.532Z" fill="#D17100"/>
<path d="M83.5233 163.855C84.0262 157.618 77.321 152.881 72.0197 152.804C59.6639 152.63 60.2157 143.874 56.5348 144.983C56.0529 145.248 55.3893 146.371 55.2426 147.181C54.7747 145.192 50.7445 147.669 52.0437 151.499C51.7713 151.151 51.8202 149.846 51.5548 149.797C51.2684 149.63 50.1578 150.634 49.6759 151.562C47.7761 155.197 53.3917 161.741 53.9505 162.383C58.7 167.825 65.1538 169.695 69.0303 170.399C75.051 170.525 83.4116 174.167 83.5373 163.869L83.5233 163.855Z" fill="#F5A20A"/>
<path d="M55.5081 146.365C54.9842 149.177 60.2716 156.872 65.538 159.084C65.6847 159.147 66.0967 160.452 65.5729 160.34C60.1458 157.989 54.0692 150.838 54.4464 147.517C54.4883 147.133 54.9074 146.854 54.5861 146.512C54.6699 146.512 55.4103 146.477 55.5081 146.372V146.365Z" fill="#DC8D32"/>
<path d="M51.9612 149.573C51.4373 152.385 56.7247 160.08 61.9911 162.292C62.1378 162.355 62.5499 163.66 62.026 163.548C56.599 161.197 50.5224 154.046 50.8995 150.725C50.9414 150.341 50.9833 150.013 50.9833 150.013C50.9833 150.013 51.6469 149.553 51.9612 149.58V149.573Z" fill="#DC8D32"/>
<path d="M37.3763 117.312C39.3359 117.312 40.9245 115.725 40.9245 113.768C40.9245 111.811 39.3359 110.224 37.3763 110.224C35.4167 110.224 33.8281 111.811 33.8281 113.768C33.8281 115.725 35.4167 117.312 37.3763 117.312Z" fill="#F2B711"/>
<path d="M190.021 169.317C191.98 169.317 193.569 167.73 193.569 165.773C193.569 163.816 191.98 162.229 190.021 162.229C188.061 162.229 186.473 163.816 186.473 165.773C186.473 167.73 188.061 169.317 190.021 169.317Z" fill="#F2B711"/>
<path d="M85.7474 38.9089C87.707 38.9089 89.2956 37.3221 89.2956 35.3647C89.2956 33.4073 87.707 31.8206 85.7474 31.8206C83.7878 31.8206 82.1992 33.4073 82.1992 35.3647C82.1992 37.3221 83.7878 38.9089 85.7474 38.9089Z" fill="#F2B711"/>
<path d="M85.6562 157.716C87.2208 159.384 89.4908 161.393 91.6979 162.704C102.377 169.046 118.316 164.867 127.648 157.723C128.255 156.893 129.687 155.163 130.141 154.144C128.835 145.57 128.346 134.679 127.885 130.765C121.669 133.751 110.584 138.195 103.879 138.711C96.9154 139.249 92.7736 137.679 86.6481 135.07C86.5642 136.932 86.3407 150.293 86.3268 150.481C86.1871 152.079 86.1172 156.007 85.6562 157.709V157.716Z" fill="#F5A20A"/>
<path d="M98.8139 139.457C106.357 139.938 120.857 135.103 127.94 131.929C128.198 133.757 128.519 137.915 128.533 138.02C127.772 137.887 126.487 138.627 125.998 139.017C115.703 147.236 106.944 152.706 93.743 145.848C91.8432 144.857 89.4894 142.359 87.9528 141.759C87.3382 141.522 87.0727 141.396 86.5 141.829C86.5489 139.952 86.5908 136.617 86.514 135.592C90.5231 137.266 94.3996 139.171 98.8209 139.45L98.8139 139.457Z" fill="#D17100"/>
<path d="M72.5829 58.1985C65.6471 49.8543 51.2309 46.9938 53.92 62.2589C55.0724 68.831 60.2969 74.3287 66.7787 75.7659C67.093 76.1147 67.6308 76.1706 67.6308 76.7706C67.6378 78.445 66.9114 81.0752 66.7787 83.0566C66.7577 83.3845 65.3887 95.8101 66.1151 98.6287C66.0662 100.415 66.0592 102.159 65.7799 103.931C62.3085 120.208 71.9193 129.919 86.0213 135.745C92.3284 138.347 96.596 139.917 103.769 139.387C110.677 138.871 122.09 134.426 128.495 131.44C137.149 127.401 144.189 120.885 146.257 111.243C147.486 105.529 146.725 96.8147 146.075 90.8566C145.53 85.8333 144.357 80.9357 143.4 75.9892C145.817 75.2426 148.303 75.0124 150.615 73.8473C157.271 70.4915 161.937 60.738 158.752 53.6775C154.191 43.5613 138.364 54.7729 136.122 61.8613C135.64 62.2101 132.644 59.6915 131.91 59.2729C129.2 57.738 124.611 55.7636 121.524 55.5613C111.257 52.8961 94.3469 52.8473 85.0295 56.224C82.6756 57.4659 80.2869 58.7217 79.2811 59.5938C78.2474 60.2287 76.4803 62.4613 75.2999 62.2101C75.0624 62.1613 73.1277 58.8473 72.5968 58.2054L72.5829 58.1985Z" fill="#F5A20A"/>
<path d="M95.2067 112.121C95.1961 112.067 95.1801 112.015 95.1599 111.978C95.1396 111.942 95.1172 111.923 95.0967 111.925C95.0763 111.928 95.0594 111.953 95.0489 111.993C95.0384 112.034 95.0356 112.088 95.0389 112.144C95.0473 112.285 95.0561 112.427 95.0655 112.569C95.1495 113.845 95.2713 115.117 95.4309 116.383C95.5905 117.649 95.7878 118.91 96.023 120.166C96.0491 120.305 96.0757 120.445 96.1027 120.584C96.1133 120.639 96.1293 120.69 96.1496 120.727C96.1698 120.763 96.1923 120.782 96.2127 120.78C96.2331 120.777 96.2501 120.752 96.2606 120.712C96.271 120.671 96.2738 120.617 96.2705 120.562C96.2622 120.42 96.2533 120.278 96.2439 120.136C96.16 118.86 96.0381 117.588 95.8785 116.322C95.7189 115.056 95.5216 113.795 95.2864 112.539C95.2603 112.4 95.2338 112.26 95.2067 112.121Z" fill="#BC6C28"/>
<path d="M87.5778 50.9724C85.5732 52.0956 83.9388 53.8049 85.0284 56.2119C86.4183 59.2956 93.2213 62.4561 96.5181 62.7979C106.262 63.8166 112.08 55.6259 120.866 55.5491C121.083 55.5491 124.331 55.9189 125.693 56.484C122.235 46.9677 107.721 42.084 101.128 42.6282C97.7543 42.9072 92.8092 45.091 96.3155 48.9212C96.5181 49.3119 96.3574 49.6607 95.652 49.584C95.7847 49.591 90.1062 49.5631 87.5847 50.9724H87.5778Z" fill="#AD5C33"/>
<path d="M96.9897 49.3105C96.9897 49.3105 96.9757 49.2825 96.9688 49.2686C96.9688 49.2825 96.9827 49.2965 96.9897 49.3105Z" fill="#A86234"/>
<path d="M74.0756 99.9484C73.0698 93.5438 75.689 84.4391 83.8401 85.7228C85.5513 85.9949 86.3825 87.4461 87.6746 88.3531C88.7433 91.7019 89.3719 95.1833 88.3381 98.6228C88.2543 98.6577 87.2066 99.7461 87.0111 99.9484L86.6758 99.6205C87.8143 96.4949 87.046 88.8066 82.3523 90.16C77.1348 91.667 79.0696 104.365 84.6852 101.937V102.934C84.1334 103.493 83.5397 104.009 83.0229 104.595C81.1161 104.853 79.6493 105.279 77.8123 104.33C76.7577 103.786 74.2502 101.134 74.0616 99.9554L74.0756 99.9484Z" fill="#F7F5E8"/>
<path d="M130.391 79.6598C129.225 80.8668 126.2 77.5808 124.936 76.8203C121.905 75.0203 120.152 75.0343 116.694 75.0831C115.255 75.104 112.664 76.3459 112.287 73.8622C112.084 72.5157 113.139 71.2598 114.257 70.6529C118.37 68.4063 125.998 70.6459 128.959 74.1203C129.881 75.2087 131.592 78.404 130.398 79.6459L130.391 79.6598Z" fill="#653C20"/>
<path d="M146.673 64.6042C148.615 60.7042 150.962 57.2368 155.362 55.8833C157.066 58.2554 154.803 62.9787 153.176 65.1345C150.669 68.4554 147.91 70.367 144.082 71.7903C144.403 69.4461 145.612 66.7531 146.68 64.6112L146.673 64.6042Z" fill="#CF8529"/>
<path d="M85.1023 69.5436C86.8694 69.8157 88.7273 71.1064 88.9858 72.9761C89.4049 76.018 85.9614 74.3087 83.8451 74.4273C82.0221 74.532 79.5426 75.5436 78.0758 76.618C76.6789 77.6366 75.9315 79.5343 73.906 79.4436C72.7815 79.3947 72.6697 79.0459 72.8094 78.0064C73.4031 73.4506 80.7649 68.8668 85.1093 69.5436H85.1023Z" fill="#653C20"/>
<path d="M57.814 57.8645C64.6589 58.918 66.3562 67.0598 68.7659 72.4459C65.8114 73.318 63.7998 71.2668 61.9978 69.0971C59.616 66.2366 57.2482 61.6668 57.821 57.8645H57.814Z" fill="#CF8529"/>
<path d="M74.0676 99.9475C73.2574 99.9824 73.1806 99.508 72.9641 98.894C71.0852 93.6196 73.9489 85.9522 79.2782 83.7824C84.1953 81.7801 86.2628 83.9289 87.6667 88.3522C86.3676 87.4452 85.5434 85.994 83.8321 85.722C75.6811 84.4452 73.0549 93.5429 74.0676 99.9475Z" fill="#5B3B21"/>
<path d="M142.089 71.2729C141.3 66.9054 149.346 54.4101 154.187 54.8845C154.899 54.9543 155.025 55.4217 155.353 55.8822C150.96 57.2356 148.606 60.7031 146.664 64.6031C145.595 66.745 144.394 69.438 144.066 71.7822C143.479 71.9984 142.431 73.2543 142.075 71.2659L142.089 71.2729Z" fill="#BB5627"/>
<path d="M57.8117 57.8713C58.3635 54.1666 63.7556 58.8759 64.908 60.2224C66.7171 62.3364 70.9288 69.2364 70.0347 71.9085C69.7973 72.6131 69.1896 72.3201 68.7566 72.4457C66.3469 67.0596 64.6496 58.9178 57.8047 57.8643L57.8117 57.8713Z" fill="#BB5627"/>
<path d="M108.258 125.644C108.531 128.169 103.488 125.574 102.279 125.295C99.5834 124.681 97.048 124.465 94.3869 125.372C93.437 125.693 91.5441 127.123 91.16 127.123C90.2031 127.123 89.4977 125.993 90.0494 125.016C91.8096 121.911 97.5579 121.499 100.701 121.897C102.252 122.093 108.084 123.92 108.265 125.637L108.258 125.644Z" fill="#653C20"/>
<path d="M104.422 105.927C106.392 108.362 100.35 110.253 98.6247 109.89C97.8633 109.186 102.145 103.109 104.422 105.927Z" fill="#653C20"/>
<path d="M84.8459 105.913C87.1648 103.876 89.9098 109.618 89.33 110.225C87.6817 110.504 82.988 107.546 84.8459 105.913Z" fill="#653C20"/>
<path d="M86.682 99.6204L87.0173 99.9553C86.1233 100.904 85.7461 101.874 84.6914 102.934V101.937C85.2222 101.706 86.4934 100.144 86.682 99.6204Z" fill="#F8EBA8"/>
<path d="M84.6832 101.937C79.0675 104.365 77.1258 91.6671 82.3503 90.1602C87.044 88.8067 87.8193 96.495 86.6738 99.6206C86.4782 100.151 85.207 101.714 84.6832 101.937Z" fill="#5B3B21"/>
<path d="M123.175 87.8501C127.31 91.1501 127.477 96.5989 125.829 101.273C125.075 103.415 121.848 105.522 119.606 105.822C111.231 106.959 107.55 94.7361 111.895 89.0082C114.71 85.2966 119.585 84.9757 123.182 87.8431L123.175 87.8501ZM116.072 103.255C122.253 103.98 121.925 91.1989 117.615 90.0896C110.568 88.2757 109.953 102.536 116.072 103.255Z" fill="#F7F5E8"/>
<path d="M111.898 89.0158C112.792 84.0135 117.849 82.5135 122.2 84.5298C127.85 87.1461 131.084 96.8856 125.832 101.281C127.48 96.6065 127.313 91.1577 123.178 87.8577C119.588 84.9903 114.705 85.3112 111.891 89.0228L111.898 89.0158Z" fill="#5B3B21"/>
<path d="M116.074 103.255C109.955 102.536 110.57 88.2829 117.617 90.0898C121.927 91.1991 122.255 103.981 116.074 103.255ZM114.223 92.4968C112.735 93.2643 114.181 95.8875 115.459 94.5619C116.234 93.7596 115.906 91.6317 114.223 92.4968Z" fill="#5B3B21"/>
<path d="M114.22 92.4966C115.904 91.6315 116.232 93.7594 115.457 94.5618C114.179 95.8873 112.733 93.2571 114.22 92.4966Z" fill="#F7F5E8"/>
<path d="M81.5916 92.4966C83.2749 91.6315 83.6032 93.7594 82.8279 94.5618C81.5497 95.8873 80.1039 93.2571 81.5916 92.4966Z" fill="#F7F5E8"/>
<path d="M222.304 64.9108C221.654 53.148 210.36 44.2038 197.082 44.9434C183.804 45.6759 173.565 55.8062 174.215 67.569C174.354 70.1225 174.997 72.5364 176.052 74.755L168.885 80.4201C168.033 81.0899 168.501 82.4573 169.584 82.4713L182.68 82.6876C187.178 86.0224 193.08 87.8922 199.443 87.5434C212.721 86.8108 222.96 76.6806 222.311 64.9178L222.304 64.9108Z" fill="#F2B711"/>
<path d="M190.077 71.8396L189.986 71.1489C189.749 69.7186 190.147 68.114 191.397 66.4465C192.521 64.9675 193.136 63.893 193.073 62.693C193.003 61.3326 192.095 60.4675 190.412 60.5303C189.79 60.5651 189.127 60.7326 188.561 60.9977C188.1 61.214 187.548 61.0256 187.339 60.5512C187.15 60.1186 187.318 59.6163 187.73 59.393C188.582 58.9465 189.707 58.6396 190.789 58.5768C193.862 58.4163 195.35 60.2372 195.455 62.2605C195.553 64.0744 194.603 65.4349 193.401 67.0256C192.298 68.4768 191.935 69.6698 192.088 71.0303L192.151 71.721L190.07 71.8326L190.077 71.8396ZM189.686 75.607C189.637 74.6233 190.265 73.8907 191.201 73.8419C192.137 73.793 192.815 74.4558 192.864 75.4396C192.913 76.3744 192.34 77.1279 191.348 77.1768C190.412 77.2256 189.735 76.5419 189.686 75.607Z" fill="#823F1C"/>
<path d="M202.414 70.674L202.316 69.8159C202.058 68.0299 202.588 66.0554 204.181 64.0043C205.613 62.1973 206.402 60.8717 206.353 59.3787C206.297 57.6903 205.194 56.595 203.098 56.6299C202.323 56.6578 201.492 56.8531 200.786 57.1671C200.207 57.4252 199.522 57.1671 199.278 56.588C199.054 56.0508 199.278 55.4229 199.795 55.1578C200.863 54.6206 202.274 54.2647 203.615 54.2159C207.436 54.0833 209.238 56.3857 209.329 58.9043C209.405 61.1578 208.197 62.8252 206.668 64.7717C205.264 66.5438 204.782 68.0229 204.942 69.7113L205.005 70.5694L202.414 70.6601V70.674ZM201.841 75.3415C201.799 74.1136 202.602 73.2206 203.762 73.1857C204.921 73.1508 205.753 73.981 205.794 75.2089C205.836 76.3671 205.103 77.295 203.874 77.3299C202.714 77.3717 201.883 76.4996 201.841 75.3415Z" fill="#823F1C"/>
</g>
<defs>
<clipPath id="clip0_2_2910">
<rect width="227" height="210" fill="white" transform="translate(0.5)"/>
</clipPath>
</defs>
</svg>
